<svg fill="none" height="512" viewBox="0 0 512 512" width="512" xmlns="http://www.w3.org/2000/svg" xmlns:xlink="http://www.w3.org/1999/xlink"><linearGradient id="a" gradientUnits="userSpaceOnUse" x1="256" x2="256" y1="0" y2="512"><stop offset="0" stop-color="#e9eaea"/><stop offset="1" stop-color="#98a8a9"/></linearGradient><linearGradient id="b" gradientUnits="userSpaceOnUse" x1="140.626" x2="220.879" y1="103" y2="349.767"><stop offset=".401042" stop-color="#de41e0"/><stop offset=".583333" stop-color="#42b883"/></linearGradient><rect fill="#353535" height="481" rx="63.5" stroke="url(#a)" stroke-width="31" width="481" x="15.5" y="15.5"/><path d="m117.527 140.717v-7.387h-31.4235v7.387zm38.327 0v-7.387h-31.424v7.387zm38.326 0v-7.387h-31.424v7.387zm38.326 0v-7.387h-31.424v7.387zm38.326 0v-7.387h-31.424v7.387zm38.326 0v-7.387h-31.424v7.387zm38.326 0v-7.387h-31.423v7.387zm38.327 0v-7.387h-31.424v7.387zm38.326 0v-7.387h-31.424v7.387zm-316.085 69.943h8.295l-20.556-57.005h-8.5068zm47.802 4.057v-7.387h-31.424v7.387zm38.326 0v-7.387h-31.424v7.387zm28.85-4.057h8.295l-20.555-57.005h-8.507zm47.802 4.057v-7.387h-31.424v7.387zm38.326 0v-7.387h-31.424v7.387zm28.851-4.057h8.295l-20.556-57.005h-8.507zm47.802 4.057v-7.387h-31.424v7.387zm38.326 0v-7.387h-31.424v7.387zm28.85-4.057h8.295l-20.555-57.005h-8.507zm-191.631 74h8.295l-20.555-57.005h-8.507zm47.802 4.057v-7.387h-31.424v7.387zm38.326 0v-7.387h-31.423v7.387zm28.851-4.057h8.295l-20.556-57.005h-8.507z" fill="url(#b)"/><path d="m117.527 140.717v-7.387h-31.4235v7.387zm38.327 0v-7.387h-31.424v7.387zm38.326 0v-7.387h-31.424v7.387zm38.326 0v-7.387h-31.424v7.387zm38.326 0v-7.387h-31.424v7.387zm38.326 0v-7.387h-31.424v7.387zm38.326 0v-7.387h-31.423v7.387zm38.327 0v-7.387h-31.424v7.387zm38.326 0v-7.387h-31.424v7.387zm-316.085 69.943h8.295l-20.556-57.005h-8.5068zm47.802 4.057v-7.387h-31.424v7.387zm38.326 0v-7.387h-31.424v7.387zm28.85-4.057h8.295l-20.555-57.005h-8.507zm47.802 4.057v-7.387h-31.424v7.387zm38.326 0v-7.387h-31.424v7.387zm28.851-4.057h8.295l-20.556-57.005h-8.507zm47.802 4.057v-7.387h-31.424v7.387zm38.326 0v-7.387h-31.424v7.387zm28.85-4.057h8.295l-20.555-57.005h-8.507zm-191.631 74h8.295l-20.555-57.005h-8.507zm47.802 4.057v-7.387h-31.424v7.387zm38.326 0v-7.387h-31.423v7.387zm28.851-4.057h8.295l-20.556-57.005h-8.507z" fill="#ff6af0"/><path d="m57.2529 210.66 20.7676-57.005h-8.5068l-20.5557 57.005zm12.4727 74h8.2949l-20.5557-57.005h-8.5068zm25.8535 0 20.7679-57.005h-8.507l-20.5558 57.005zm60.2749 4.057v-7.387h-31.424v7.387zm38.326 0v-7.387h-31.424v7.387zm16.378-4.057 20.767-57.005h-8.507l-20.555 57.005zm213.579 4.057v-7.387h-31.424v7.387zm16.378-4.057 20.767-57.005h-8.507l-20.555 57.005zm-217.485 74h8.295l-20.555-57.005h-8.507zm25.854 0 20.767-57.005h-8.506l-20.556 57.005zm60.274 4.057v-7.387h-31.424v7.387zm38.326 0v-7.387h-31.423v7.387zm16.378-4.057 20.768-57.005h-8.507l-20.556 57.005z" fill="url(#b)"/><path d="m57.2529 210.66 20.7676-57.005h-8.5068l-20.5557 57.005zm12.4727 74h8.2949l-20.5557-57.005h-8.5068zm25.8535 0 20.7679-57.005h-8.507l-20.5558 57.005zm60.2749 4.057v-7.387h-31.424v7.387zm38.326 0v-7.387h-31.424v7.387zm16.378-4.057 20.767-57.005h-8.507l-20.555 57.005zm213.579 4.057v-7.387h-31.424v7.387zm16.378-4.057 20.767-57.005h-8.507l-20.555 57.005zm-217.485 74h8.295l-20.555-57.005h-8.507zm25.854 0 20.767-57.005h-8.506l-20.556 57.005zm60.274 4.057v-7.387h-31.424v7.387zm38.326 0v-7.387h-31.423v7.387zm16.378-4.057 20.768-57.005h-8.507l-20.556 57.005z" fill="#42b883"/></svg>