<svg fill="none" height="512" viewBox="0 0 512 512" width="512" xmlns="http://www.w3.org/2000/svg" xmlns:xlink="http://www.w3.org/1999/xlink"><linearGradient id="a" gradientUnits="userSpaceOnUse" x1="256" x2="256" y1="0" y2="512"><stop offset="0" stop-color="#e9eaea"/><stop offset="1" stop-color="#98a8a9"/></linearGradient><linearGradient id="b" gradientUnits="userSpaceOnUse" x1="135.5" x2="248.5" y1="57" y2="344.5"><stop offset=".401042" stop-color="#de41e0"/><stop offset=".583333" stop-color="#42b883"/></linearGradient><linearGradient id="c" gradientUnits="userSpaceOnUse" x1="232.5" x2="232.5" y1="57" y2="428"><stop offset="0" stop-color="#ff00e5"/><stop offset=".765625" stop-color="#fff500"/></linearGradient><rect fill="#353535" height="481" rx="63.5" stroke="url(#a)" stroke-width="31" width="481" x="15.5" y="15.5"/><path d="m116.016 125.297v-5.719h-24.3285v5.719zm29.672 0v-5.719h-24.329v5.719zm29.671 0v-5.719h-24.328v5.719zm29.672 0v-5.719h-24.328v5.719zm29.672 0v-5.719h-24.328v5.719zm29.672 0v-5.719h-24.328v5.719zm29.672 0v-5.719h-24.328v5.719zm29.672 0v-5.719h-24.328v5.719zm29.672 0v-5.719h-24.329v5.719zm-244.711 53.859h6.422l-15.9145-44.133h-6.5859zm37.008 3.141v-5.719h-24.329v5.719zm29.671 0v-5.719h-24.328v5.719zm22.336-3.141h6.422l-15.914-44.133h-6.586zm37.008 3.141v-5.719h-24.328v5.719zm29.672 0v-5.719h-24.328v5.719zm22.336-3.141h6.422l-15.914-44.133h-6.586zm37.008 3.141v-5.719h-24.328v5.719zm29.672 0v-5.719h-24.329v5.719zm22.336-3.141h6.421l-15.914-44.133h-6.586zm-148.36 57h6.422l-15.914-44.133h-6.586zm37.008 3.141v-5.719h-24.328v5.719zm29.672 0v-5.719h-24.328v5.719zm22.336-3.141h6.422l-15.914-44.133h-6.586z" fill="url(#b)"/><path d="m116.016 125.297v-5.719h-24.3285v5.719zm29.672 0v-5.719h-24.329v5.719zm29.671 0v-5.719h-24.328v5.719zm29.672 0v-5.719h-24.328v5.719zm29.672 0v-5.719h-24.328v5.719zm29.672 0v-5.719h-24.328v5.719zm29.672 0v-5.719h-24.328v5.719zm29.672 0v-5.719h-24.328v5.719zm29.672 0v-5.719h-24.329v5.719zm-244.711 53.859h6.422l-15.9145-44.133h-6.5859zm37.008 3.141v-5.719h-24.329v5.719zm29.671 0v-5.719h-24.328v5.719zm22.336-3.141h6.422l-15.914-44.133h-6.586zm37.008 3.141v-5.719h-24.328v5.719zm29.672 0v-5.719h-24.328v5.719zm22.336-3.141h6.422l-15.914-44.133h-6.586zm37.008 3.141v-5.719h-24.328v5.719zm29.672 0v-5.719h-24.329v5.719zm22.336-3.141h6.421l-15.914-44.133h-6.586zm-148.36 57h6.422l-15.914-44.133h-6.586zm37.008 3.141v-5.719h-24.328v5.719zm29.672 0v-5.719h-24.328v5.719zm22.336-3.141h6.422l-15.914-44.133h-6.586z" fill="#ff6af0"/><path d="m69.3516 179.156 16.0781-44.133h-6.5859l-15.9141 44.133zm9.6562 57h6.4219l-15.9141-44.133h-6.5859zm20.0156 0 16.0786-44.133h-6.586l-15.9144 44.133zm46.6646 3.141v-5.719h-24.329v5.719zm29.671 0v-5.719h-24.328v5.719zm12.68-3.141 16.078-44.133h-6.586l-15.914 44.133zm165.352 3.141v-5.719h-24.329v5.719zm12.679-3.141 16.078-44.133h-6.586l-15.914 44.133zm-168.375 57h6.422l-15.914-44.133h-6.586zm20.016 0 16.078-44.133h-6.586l-15.914 44.133zm46.664 3.141v-5.719h-24.328v5.719zm29.672 0v-5.719h-24.328v5.719zm12.68-3.141 16.078-44.133h-6.586l-15.914 44.133z" fill="url(#b)"/><path d="m69.3516 179.156 16.0781-44.133h-6.5859l-15.9141 44.133zm9.6562 57h6.4219l-15.9141-44.133h-6.5859zm20.0156 0 16.0786-44.133h-6.586l-15.9144 44.133zm46.6646 3.141v-5.719h-24.329v5.719zm29.671 0v-5.719h-24.328v5.719zm12.68-3.141 16.078-44.133h-6.586l-15.914 44.133zm165.352 3.141v-5.719h-24.329v5.719zm12.679-3.141 16.078-44.133h-6.586l-15.914 44.133zm-168.375 57h6.422l-15.914-44.133h-6.586zm20.016 0 16.078-44.133h-6.586l-15.914 44.133zm46.664 3.141v-5.719h-24.328v5.719zm29.672 0v-5.719h-24.328v5.719zm12.68-3.141 16.078-44.133h-6.586l-15.914 44.133z" fill="#42b883"/><path d="m305.156 307.43v41.32h13.125v-3.75h-8.508v-33.82h8.438v-3.75zm72.469 0h-13.031v3.75h8.414v33.82h-8.508v3.75h13.125zm33.68 12.023h-4.688v14.977c0 4.125-2.625 6.867-6.539 6.867-3.773 0-5.531-2.063-5.531-6.422v-15.422h-4.711v16.57c0 6.141 3 9.469 8.555 9.469 3.82 0 6.703-1.781 8.039-4.922h.328v4.43h4.547zm25.429 18.797c-.632 2.086-2.906 3.375-5.929 3.375-4.032 0-6.633-2.766-6.633-7.078v-1.149h17.133v-2.765c0-7.266-4.055-11.672-10.735-11.672-6.632 0-11.015 4.43-11.015 11.156v3.891c0 7.265 4.101 11.484 11.273 11.484 5.508 0 9.727-2.953 10.406-7.242zm-6.211-15.445c3.868 0 6.165 2.742 6.165 7.289h-12.516c0-4.571 2.39-7.289 6.351-7.289zm-214.382 41.625v41.32h13.125v-3.75h-8.508v-33.82h8.437v-3.75zm72.468 0h-13.031v3.75h8.414v33.82h-8.508v3.75h13.125zm29.438 30.82c-.633 2.086-2.906 3.375-5.93 3.375-4.031 0-6.633-2.766-6.633-7.078v-1.149h17.133v-2.765c0-7.266-4.055-11.672-10.734-11.672-6.633 0-11.016 4.43-11.016 11.156v3.891c0 7.265 4.102 11.484 11.274 11.484 5.507 0 9.726-2.953 10.406-7.242zm-6.211-15.445c3.867 0 6.164 2.742 6.164 7.289h-12.516c0-4.571 2.391-7.289 6.352-7.289zm28.547 10.804c0-6.257 3.211-9.843 8.976-9.843 1.407 0 3.071.304 4.219.726v-5.156c-.844-.352-2.226-.539-3.68-.539-4.898 0-7.875 2.367-8.882 7.172h-.657v-6.516h-10.101v3.609h5.554v18.329h-5.062v3.609h17.391v-3.609h-7.758zm43.008-7.711c0-4.523-1.805-6.937-5.25-6.937-2.532 0-4.5 1.57-5.11 4.101h-.515c-.539-2.601-2.204-4.101-4.594-4.101-2.438 0-4.242 1.547-4.852 4.195h-.515v-3.703h-4.149v25.547h4.125v-17.32c0-2.813 1.289-4.547 3.352-4.547 1.945 0 3 1.453 3 4.195v17.672h4.101v-17.32c0-2.813 1.266-4.547 3.282-4.547 1.922 0 3 1.476 3 4.219v17.648h4.125zm17.179 15.329c-4.593 0-7.242-3.047-7.242-8.321v-21.726h-4.875v22.031c0 7.828 4.524 12.492 12.117 12.492 7.594 0 12.118-4.664 12.118-12.492v-22.031h-4.876v21.726c0 5.274-2.648 8.321-7.242 8.321zm39 3.773v-4.242h-6.89v-25.336h6.89v-4.242h-18.656v4.242h6.891v25.336h-6.891v4.242z" fill="url(#c)"/><path d="m305.156 307.43v41.32h13.125v-3.75h-8.508v-33.82h8.438v-3.75zm72.469 0h-13.031v3.75h8.414v33.82h-8.508v3.75h13.125zm33.68 12.023h-4.688v14.977c0 4.125-2.625 6.867-6.539 6.867-3.773 0-5.531-2.063-5.531-6.422v-15.422h-4.711v16.57c0 6.141 3 9.469 8.555 9.469 3.82 0 6.703-1.781 8.039-4.922h.328v4.43h4.547zm25.429 18.797c-.632 2.086-2.906 3.375-5.929 3.375-4.032 0-6.633-2.766-6.633-7.078v-1.149h17.133v-2.765c0-7.266-4.055-11.672-10.735-11.672-6.632 0-11.015 4.43-11.015 11.156v3.891c0 7.265 4.101 11.484 11.273 11.484 5.508 0 9.727-2.953 10.406-7.242zm-6.211-15.445c3.868 0 6.165 2.742 6.165 7.289h-12.516c0-4.571 2.39-7.289 6.351-7.289zm-214.382 41.625v41.32h13.125v-3.75h-8.508v-33.82h8.437v-3.75zm72.468 0h-13.031v3.75h8.414v33.82h-8.508v3.75h13.125zm29.438 30.82c-.633 2.086-2.906 3.375-5.93 3.375-4.031 0-6.633-2.766-6.633-7.078v-1.149h17.133v-2.765c0-7.266-4.055-11.672-10.734-11.672-6.633 0-11.016 4.43-11.016 11.156v3.891c0 7.265 4.102 11.484 11.274 11.484 5.507 0 9.726-2.953 10.406-7.242zm-6.211-15.445c3.867 0 6.164 2.742 6.164 7.289h-12.516c0-4.571 2.391-7.289 6.352-7.289zm28.547 10.804c0-6.257 3.211-9.843 8.976-9.843 1.407 0 3.071.304 4.219.726v-5.156c-.844-.352-2.226-.539-3.68-.539-4.898 0-7.875 2.367-8.882 7.172h-.657v-6.516h-10.101v3.609h5.554v18.329h-5.062v3.609h17.391v-3.609h-7.758zm43.008-7.711c0-4.523-1.805-6.937-5.25-6.937-2.532 0-4.5 1.57-5.11 4.101h-.515c-.539-2.601-2.204-4.101-4.594-4.101-2.438 0-4.242 1.547-4.852 4.195h-.515v-3.703h-4.149v25.547h4.125v-17.32c0-2.813 1.289-4.547 3.352-4.547 1.945 0 3 1.453 3 4.195v17.672h4.101v-17.32c0-2.813 1.266-4.547 3.282-4.547 1.922 0 3 1.476 3 4.219v17.648h4.125zm17.179 15.329c-4.593 0-7.242-3.047-7.242-8.321v-21.726h-4.875v22.031c0 7.828 4.524 12.492 12.117 12.492 7.594 0 12.118-4.664 12.118-12.492v-22.031h-4.876v21.726c0 5.274-2.648 8.321-7.242 8.321zm39 3.773v-4.242h-6.89v-25.336h6.89v-4.242h-18.656v4.242h6.891v25.336h-6.891v4.242z" fill="#e4e6e6"/><path d="m341.602 338.367h-.305l-6.961-27.187h-7.195l10.148 33.82h7.875l10.148-33.82h-6.656z" fill="url(#c)"/><path d="m341.602 338.367h-.305l-6.961-27.187h-7.195l10.148 33.82h7.875l10.148-33.82h-6.656z" fill="#42b883"/><path d="m255.539 402v-28.078h9.68v-5.742h-26.016v5.742h9.68v28.078z" fill="url(#c)"/><path d="m255.539 402v-28.078h9.68v-5.742h-26.016v5.742h9.68v28.078z" fill="#ff6af0"/></svg>